<svg id="Layer_1" data-name="Layer 1" xmlns="http://www.w3.org/2000/svg" viewBox="0 0 1920 747.69"><defs><style>.cls-1{fill:#fff;}.cls-2{opacity:0.1;}</style></defs><title>banner.white</title><polygon class="cls-1" points="1229.85 747.69 1021.37 415.39 1021.55 415.2 1021.28 414.77 1219.88 206.09 1043.46 206.09 845.92 409.65 845.92 0 690.15 0 690.15 747.69 845.92 747.69 845.92 600.51 848.32 599.39 848.32 596.6 914.43 526.66 914.71 527.14 915.99 525.79 1046.37 747.69 1229.85 747.69"/><polygon class="cls-2" points="844.44 600.2 844.44 409.67 1042.33 206.06 1218.96 206.06 844.44 600.2"/><path class="cls-1" d="M180.78,429.46V491.8c-7.62-.69-16.62-1.39-22.16-1.39-63.72,0-102.51,49.18-102.51,117.06V770.25H0V432.93H56.11v59.57h.69c24.94-40.17,64.42-63.72,110.13-63.72C172.47,428.77,177.32,428.77,180.78,429.46Z" transform="translate(0 -166.15)"/><path class="cls-1" d="M574.12,432.93V770.25h-54V716.91h-.69c-27,36-68.57,57.49-117.75,57.49-93.51,0-165.54-67.19-165.54-170.39,0-99.74,69.26-175.24,164.85-175.24,46.41,0,88,19.39,116.37,54.72H518V432.93ZM520.1,604c0-69.27-47.79-123.29-112.9-123.29-63.72,0-114.29,48.49-114.29,123.29,0,67.88,45,119.14,113.6,119.14C467.45,723.15,520.1,675.35,520.1,604Z" transform="translate(0 -166.15)"/><path class="cls-1" d="M1530.19,432.93V770.25h-56.11V714.14h-.69c-27,38.79-67.19,60.26-110.83,60.26-77.58,0-126.76-44.33-126.76-140.61V432.93h56.11V617.86c0,76.88,28.4,105.28,82.43,105.28,53.33,0,99.74-46.41,99.74-126.76V432.93Z" transform="translate(0 -166.15)"/><path class="cls-1" d="M1920,570.07V770.25h-56.11V586c0-79-33.25-105.28-82.43-105.28-63.72,0-106,45-106,121.21V770.25h-56.11V432.93h56.11V491.8h.69c28.4-40.17,72.73-63,122.6-63C1871.51,428.77,1920,473.79,1920,570.07Z" transform="translate(0 -166.15)"/></svg>