<svg xmlns="http://www.w3.org/2000/svg" width="519.82" height="422.31" viewBox="0 0 519.82 422.31"><defs><style>.cls-1{fill:none;stroke:#000;stroke-linecap:round;stroke-linejoin:round;stroke-width:2px;}</style></defs><title>Asset 2</title><g id="Layer_2" data-name="Layer 2"><g id="Layer_1-2" data-name="Layer 1"><path class="cls-1" d="M109.25,275.77c5.8-7,21.41-20.24,29.28-18.79,6.75,1.24,14.79,7.7,21,10.92,4.73-9.72,7.56-11.51.94-19.46-8.24-9.89-8.35-8.27-3-20.17,2.37-5.27,5.56-22,9.81-23.94,3.47-1.56,8.93,6.51,12.74,6.07,4.41-.51,9.78-8.75,12.5-12.38-8.45.08-18.36,3.1-26,6.91-5.91,2.93-14.73,11.92-21.16,12.43-14.91,1.2-32-23.12-47-19.05-6.77,1.84-16.07,11.53-21.58,15.54-4.92,3.58-20.73,11.46-23,16.41-2.49,5.4,8.85,7.33,14.31,9.58,8.6,3.54,26.36,15.87,34.95,13.19,5.43-1.7,13.08-11.31,17.5-15,7.42-6.2,14.61-13,22.75-18.25,1.36,10.75-4.72,23.31-5.25,34.5,4.3-11.12,19.63-17.9,29.76-13,7.58,3.67,6.5,5.73,16.61,5.75,10.86,0,10.82,1.4,11-9.5.05-4.24,1.76-9.94-2.08-12.75-2.63-1.92-9.72,2-12.78.69-1.55-.67-4.14-6.51-5.72-6.44-3.57.16-7.92,16.21-8.5,20.5,1.69-8.47-2.2-17.15,8.62-21,11-3.89,15.74,4,23.88,9.46-1.22-3.2-3.26-6.75-3.85-10.11-1.1-6.26,2-13.58-.4-19.89l14.5-1.75-14,.25c.17-9.06,0-14.26-3.26-22.5-2.26-5.65-9.65-16.42-8-22.5,7.39,5.42,16.93,17.22,22,25.59,3.92,6.47,2.87,6.52,3.76,14.4.77,6.83,3.15,11.33,6.28,17.59,4.28,8.54,7.35,13.27,7.95,22.1,1,14.53,0,29.48,0,44.05,4.75-2.82,31.61-28.08,35.31-25.29,4.34,3.28-14.88,39.7-13.29,46.32,2.89,12.07,26.47,7.64,28-2,1.16-7.48-17.79-40.91-12-45.26,4.68,3,32.06,27.83,35,25.5,1.94-1.54-.5-21.12-.5-24.75,0-7.62-1.29-17,.44-24.5,1-4.38,4.08-9.12,6.23-13.48,4.68-9.46,6.08-15,7.58-25.09,1.66-11.22,16.68-28.75,25.75-35.18,1.53,5.59-6,17.41-8,22.5-3.26,8.16-3.43,13.53-3.26,22.5l-14-.25L325.5,198c-2.36,6.3.76,13.68-.4,19.89-.63,3.36-2.63,6.9-3.85,10.11,8-5.31,13.4-13.29,24.05-9.19,11.3,4.35,6,12.4,8.7,20.69-.89-4.5-4.68-19.29-8-19.94-2.7-.53-2.54,3.31-5,4.23-3.4,1.25-7.41,0-11.06,1.13-7.1,2.23-5.38,3.64-5.27,12.58.12,9.7-1.11,8.38,7.92,9.5,8.56,1.06,11.53-1.1,18-4,6-2.66,11.11-5.87,18.6-2,4.1,2.14,7.19,10.22,12.06,10.7,2.43-10.08-6.09-21.8-4.5-32,12.09,4,24.75,20.3,34.88,28.49,11.38,9.2,20.3.26,33.37-5.29,4.33-1.84,18.52-5,21.19-9.31,2.49-4,.59-2-3.19-5.76-6.23-6.14-16.19-11.16-23-16.24-5.19-3.87-12.14-11.1-18.2-13.22-5.68-2-6.49-.46-12.69,2.87-7.55,4.05-26.17,17.24-33.83,16.39-6.13-.68-14.58-8.72-20-11.75-8.11-4.53-18.62-8.31-27.78-7.93.76,2.05,8.89,12.22,11.25,12.5,4.73.57,8.84-6.81,12.75-6,6,1.25,7.47,15.57,10.13,21.73,4.63,10.73,8,10.9.36,19.76-8.47,9.79-7.52,9.49-1.49,21.88,6.4-3.47,12.78-7.69,19.46-10.55,10.42-4.46,29-6,40-3.46,10,2.26,27.2,14.1,34.79,22.12,11.52,12.17,31.27,24.83,38.73,39.76-15.85-2.29-34.79-16.39-49.26-23.74-8.67-4.4-19.54-12.1-29.09-14.27-9.81-2.23-21.39,5.67-31.08,9.92-11.4,5-22.29,9.37-34.33,12.34-9.34,2.31-19,2.45-27.81,6.81-10.49,5.19-20,13.2-29.73,19.68-8.13,5.42-16.92,10.72-26.76,12.51-8.6,1.56-18.07-1.54-26.57-5.39C219,324.63,205,307.22,183.25,302c-23.55-5.62-26.87-3.08-46.95,9.9q-14.42,9.32-28.88,18.56c-7.4,4.72-19.69,9.82-24.67,17.28,14.4-.28,29.92-1.57,44.5-3,5.7-.56,11.5-1.42,17.33-1.86,7-.53,18.24.92,24.42-1.14-13.67,5.66-27.38,11-41.25,16.25-13.45,5.06-11.18,5.31.48,13,9.62,6.36,14.69,5.17,25.77,2.77,5.91-1.28,15.77-5.37,21.37-3.17,5.83,2.29,12.62,10.88,17.74,14.89,8,6.23,14.93,13.86,25.14,16.49,27.11,7,62.07,6.35,88.52-2.16,12.16-3.91,22.91-16.1,32.56-24.32,6.52-5.56,7.18-6.21,7.18-15.26,0-6.15-.83-13.57.25-19.25-15.77,7.88-27.68,25.64-42.5,35.25,15.78-1.53,32.42-7.56,48.08-5.41,8.2,1.13,16.42,5,24.68,5.28,9.66.38,18.94-6.7,25.87-13.37-9.16,5.58-18.38,12.48-28.21,16.66-21.51,9.15-46.14,10.92-67.41,20.59,7.13-2.73-2.68-16.37-3.74-22.06-1.34-7.17,1.63-15.62-1-22.56-3.48-9.18-16.44-14.29-20.92-23.66-3.65-7.64-6-20.44-6.33-28.89-.83-18.71,40-40.63,56.45-48.36,2.58,13.88-3.51,30.09-6.36,43.55-4.18,19.76-14.56,37.22-21.1,56.23,10.55-1,26.94-6.3,36.26-11,10.66-5.35,11.49-19.88,15.35-30.78,1.53-4.33,5.18-10.74,2.91-14.38-3.06-4.91-14.67-6.26-19.9-8-12.57-4.1-27.08-11.7-40.12-12.4,9.81,13.49,24,23,33,37.25,6.35,10,9.72,24.4,21.25,27.25l-40.09,29.06c-5.46,4-8.71,6.43-12.57,11.68-10.89,14.84-19.79,15.52-38.47,15.49-19.61,0-31.16.5-42.75-16-4.68-6.68-4.51-6.11-13.62-7.46-7.72-1.15-18.58-1.42-25.87-4.17-8.17-3.07-6.15-4.11-6.14-14.68,0-5.71-2.93-14.36,3.68-13.08,3.45.66,11.75,10.77,14.9,13.42,7.33,6.14,15.41,12,21.91,19,2.57-2.51,5.82-7.24,9-8.78,4.12-2,11.29-4.33,15,2.78,4.42,8.41-4.39,8.14-8.75,3.5-3.81-4-6.54-11.55-10-16.25,6.29-.63,15.56,2.06,21.24,4.29,5,2,14.6,14.6,18.82,14.85,5.44.33,12.24-11.42,17-13.86,2.94-1.49,21.11-7.34,24.41-5.29C295,364.65,292.5,377,281.88,377c0-9.36,3.76-9.72,12.38-13L260,341.27V376c0,6.53,1.81,18.1-1.64,22.93-3.84,5.38-18.06,9.47-24.11,12.64,1.16-.39,7.36,1.28,9.5,1.52,6.43.71,13.36,0,19.83,0,7.73,0,16-.92,23.17-1-15.23,10.55-38.71,14.09-53.5,0-5.48-5.22-10-12.35-14.71-18.22l-40.79-50.53c13,0,24.94,10.1,38,11-5.15-14.15-17.14-31-18.64-45.74-1.14-11.23,17.23-21.26,24.14-30.76-8.5.12-17.17,5-25.26,7.71-8.3,2.74-24.1,4.46-30.73,10.1-1.4,1.19-4.93,1-5.76,2.69-.73,1.54,4.47,14.24,5.07,16.09,2.62,8,4.53,18,9.18,24.91,6.67-5.55,14.76-20.91,18.22-29.18,2.59-6.18,1.83-8.09.67-15.28-2.09-12.9-6.14-27.26-4.48-40.39,11,5.17,21.94,12.36,32.05,19.39,6.74,4.68,12,10.52,18,16.21,7.85,7.43,7.88,6.62,5.56,17.42-1.66,7.71-1.94,17.79-5.44,24.84-4.43,8.91-17,13.46-20.8,22.24-2.66,6.08-.65,15-1.6,21.54-.55,3.82-8.42,22.09-3.65,23.71-23.3-11.34-51.62-12.16-74.69-24.41-14-7.43-26.49-15.15-41.38-20.34C71,346.26,46.67,329.6,23,317.27c-1.74,5.05,52.91,29.3,59.25,30.25-4.46-7.41,12.33-36.78,15.66-45.42,1.88-4.86,10.3-18.43,8.82-23.09-1.88-5.92-8.48-5.42-15.74-6.75-7.69-1.41-14.94-3.25-22.69-3.62-5.52-.27-25.57-2.87-29.6,0-4.35,3.1-7.78,23.33-9.65,28.94-1.76,5.28-3.24,14.52-7.06,17.93-4.79-10.78-6.5-30-6.74-41.75-.27-12.84,6.63-26.85,10.73-39,4-11.84,10.39-20.42,17.2-30.84C50.61,192.56,59.36,173.67,70,166c2,5.75-6,22.39-7.74,28.25-3.07,10.48-5.78,21.27-9.37,31.56-6.31,18-29.27,25.86-37.14,42.18,4.51.82,15.57,2.36,19.75.52,4.75-2.09,4.51-3.24,6.76-10,1.48-4.45,7.54-16.22,6.24-20.5-.52-1.71-4.27-3.67-5.33-5-3-3.84-10.53-7.19-12.42-11.72C27.3,213,35,194,36.43,185c3-18.83,6.58-36.72,8-55.55.95-13,1.24-26,1.87-39,17.07,2.13,31.6,26,49.25,25.5,15.41-.4,35-12.59,49.5-17.6,6.63-2.29,16.59-8.09,23.39-8.5,6.12-.37,3.89-1.32,8.83,4.66l17.28,20.93c-6.83-6.21-18.33-19.53-21.75-28.25-4.34-11.06-4.5-28.51-6-40.5l69.31-2.21c4.52-.14,20.72-3.45,24.86-.79,3.28,2.1,4,12,4.83,15.37,2.24,8.77,4.08,21.49,9,28.87-25.08,0-48.47-1.78-71.25-14.25,14.86-14.86,40.12-19.86,53.75-35.5-16.7-5-40.42-.64-57.38,1.84-7.55,1.11-20.48.12-27.19,3.73-7.3,3.93-2.26,4.47,4.71,10C181.06,56.79,199.48,67.82,200,72c.63,5.26-9.23,7.55-15.19,10.49-6.44,3.18-8.15,5.13-14.53,3.72-3.88-.86-8.42-5.09-11.76-7.12-6.14-3.72-12.63-8.44-19.26-10.37,1.32,10.59,12.29,23.94,17.49,33.38,8.55,15.52,16.85,31.16,25.51,46.62L1,44.77c8.71.36,7.6-4.68,10.12-12.39,2.76-8.48,4-8.8-3.12-15.36C14.45,10.79,19.73,3.23,28.42,1.54,39.76-.67,70.53,5.14,77,14.27,63,13.69,46.78,7.72,33,10l36.32,3.61c3.75.37,11.26-.23,14.68,2,7.24,4.75.33,17,2.74,25.87,2.34,8.64,11.31,14.36,18,21,2.37,2.36,14.42,17.85,17.25,17.69,2-.11,2.11-2,4.09-2.93,4.14-2,8.81-8.35,12.15-11.56,7.62-7.34,20.43-13.09,26.25-21-12.2-3.92-24.44-6.29-36.4-11.13C116.8,29.07,103,19.71,90.75,18.77,96,28.12,107.34,36.36,115,44.05l13.18,13.18c7.5,7.51,9.52,5.61,5.54,13.13C131,75.6,123.13,80.69,119.22,85.41c-3.52,4.24-6.79,8.72-10.23,13-5.45,6.84-10.52,13.61-15.29,20.89-4,6.08-7.49,12.74-11.91,18.51-4.71,6.15-2.29,6.79-10.63,4.92-11.5-2.57-24.91-8.38-31.4-17.89-9.33-13.68-16.64-29.17-24.9-43.53A33.39,33.39,0,0,0,8,87c5.29-4.48,5.83-4.47,5.73-11.5-.12-8.37-4.59-16.77-5.2-25.13C7.69,39.06,15.81,8.77,32,10.2c4.88.43,16.14,10.41,20.55,13.07,7.22,4.35,14.35,8.82,21.42,13.41C78.33,39.54,85.69,43.28,87.5,47c3,6.14,1.49,21,2.19,28.2,1.88,19.2,7.17,36.73-1.8,54.31-3.77,7.39-16,23.9-14.33,32.24,1.44,7.3,25.52,33.78,30.07,33.86,8,.13,26.53-10.92,33.12-13.61l-11.83-13.49c-7-8-6.17-8.53-17.13-8-13.16.62-28.1,2-40.37-2.65C52.64,152.22,43.58,146,35.48,132.78c-8-13-17.48-25.43-24.62-38.93C5.76,84.23,5,73.38,3.24,62.69.79,48.09.42,33.52,6.71,19.5c3.7-8.25,16.71-25.78,22.41-9.73,4.33,12.18-2.08,29,.35,41.84,2.1,11.15,8.19,25.23,13.3,35.38s12.34,19.66,18.35,29.24c6.16,9.81,11.71,24.53,21.15,30.67,8.1,5.27,26,10.88,35.22,12.62,8.06,1.51,11.68-.55,20.21-2.81,11.07-2.93,33.44-4,42.16-11.44,6.82-5.82,10.53-19.25,15.38-27,8.12,8.8,11.57,27.36,16.7,38.52,4.8,10.44,5.35,21.22-7,24.3s-27-4.07-38.41-7.58c-9.14-2.82-18.38-5.38-27.51-8.22-4.25-1.33-10.32-4.92-14.49-4,4.33,15.87,19.29,25.65,31.55,34.83,18,13.48-.29,9.1-10.55,21.92,2.5,1.73,9.89,7.36,13,7,2.76-.32,8.51-7,11.18-8.63,7.38-4.49,10-5.76,17.73-2.25,6.52,3,8.15,5.87,11.2,12,4.35,8.69,6.08,17-1.79,23.66-9.89,8.31-25.66,4.78-37.82,4.77s-23.09,0-35,0c-6.56,0-14.65-1.46-21.07-.28-5.85,1.08-12.77,5.39-18.42,8.29C73.8,268,69.16,271.83,60.6,280.41c-9.73,9.75-28.45,22.65-34.1,35.36,7.42,1.11,22.22-10.07,29.5-13.65,12-5.87,23.81-11.9,35.7-17.91,3.94-2,8.79-5.48,13.19-6.48,7-1.6,10.75,1.29,17.7,4.34q17.15,7.53,34.66,14.19c-2.65-14-15.79-26.46-18.25-40.75,15.51,10,28,16.48,47.2,12.81,4.61-.88,11.65-7.25,15.76-7.09,5.27.2,12.69,9.1,18.29,11C216.36,262.93,206,247.49,196,244c3.13-5.19,5.13-9.77,10.07-12.78,4.45-2.71,11.25-1.92,15.41-5,7.65-5.7,11.87-19.65,16.26-28L260,242.52c0-66.31-2-133,0-199.25-6.22,4.21-7.48,20.21-9.5,27.5-2.5,9-4.77,17.61-6,26.9-1,7.27-1.3,43.36-8,45.6-1.18-10.65-11.85-24.53-16.74-34.26-5.72-11.39-11.31-22.84-17-34.24-3.17,11.38-10.71,37.61-4.41,44.78,9.4,10.71,33.11,13.74,39.39,27.11,6.41,13.66-2.87,35.74.67,50.72,1.32,5.59,16.18,45.45,21.36,46.13,3.34.44,20.7-40.58,22-45.52,3.65-14.11,1.16-37.06,0-51.61-1.08-13.18-3.26-27.24-5.11-40.71-.33-2.37-3.27-15.64-2-17.59,1.11-1.72,9.64-3.18,11.71-3.86,9.82-3.24,21.26-5.6,30.24-10.47-14.41-14.41-41.86-19.19-53.75-35.5,15.62-4.26,37-1,52.73,1.18,9.38,1.29,19,1.94,28.27,3.82,11,2.22,8.69,2.75.25,9.5-6.07,4.85-18.15,11-22.08,17.71-1.38,2.35-3.09,1.58-2.92,4,.1,1.49,12.17,6,13.51,6.66,11.1,5.47,13.39,7.41,24.29.81,7.82-4.73,15.47-9.49,23.7-13.47-1.33,10.95-11.79,23.67-17.24,33.63-8.5,15.54-16.85,31.16-25.51,46.62,10.32-8.95,28.57-11.64,41.24-16,9.27-3.2,41-8.18,45.7-16.67-36.63-9.41-72.24-26-107.19-40.31,2.24,8.31,3.39,16.75,4.75,25.25.53,3.32,3.21,11.11,2.57,13.6-1.2,4.7-.51,1.31-4,5.18-4.39,4.87-12.34,8.12-17.83,11.7-4.32,2.82-14.22,12-19.74,12,9.36-23.33,22.48-46.34,34-68.75l8.25,40.75c5.74-2.87,19.19-21.63,21.75-28.25,4.35-11.23,4.18-28.11,6-40.25l28.5,18.75C374.36,57,363.36,52.58,355.25,45c13-3.87,26.16-6.84,38.71-12.21,7.11-3,28.32-17,35.29-14-9.43,13.61-24.68,25.79-36.56,37.75-1.89,1.9-9.92,7.76-9.94,10.25,0,3.68,15.08,15.51,18.5,18.5-1.53-1.16-2.72-3.32-4-4.75,9.46-6.31,17.7-17.4,25.61-25.52,5-5.15,8.62-7.24,10.4-13.48C436.27,31,426.34,18,439,14.9c2.21-.54,5.18.28,7.44.27,21.89-.13,43.93,1.57,65.81,2.36-7,6.38-7,5.08-4,13.72,2.7,7.84,1.73,13.92,10.5,13.53C505.67,58.14,493.26,73.45,479,85.46c-7.73,6.49-15.76,10.1-25.07,15.39-5.74,3.26-22.52,17.5-29.13,15.18-3.44-1.21-11.91-15.3-14.5-18.5L326,181.27c21.35-2.14,47.83-12.68,67.75-20.5-2.8-3.75-12.46-4.3-17.25-5.51-9.41-2.37-19.13-4.3-28.4-7.15-13.69-4.21-16.2-18.4-23.36-29.84-6.27,7.17-9.06,21.31-13,30.24-4.36,9.81-14.15,23.9-1.22,32.51l-7.25-12.5C297.69,175.15,293,183,287,189.21c-6.7,7-6.85,5.18-12.85-2.64-3-4-10.53-17.8-15.51-16.33-7.31,2.16-12.25,24.88-20.12,24.56-5.11-.21-12.38-14.78-15.28-18.52-7.17-9.23-6.33-5.49-1.67-13.76C225,156.38,235,146.77,241.25,149c8,2.92,11.78,17.77,20.54,16.6,5.79-.78,11.73-17.45,18.71-17.85,6-.34,12.33,9.25,16.59,13.44,7.08,7,5.32,3.74,3,10.19-1.52,4.23-5.88,8.86-8.38,12.63-7.12,10.72-10.9,11.58-4.71,23.25,5.62,10.57,7.65,17.55,19.12,21.64,11.75,4.2,11,3.62,17.88,15.11-9.15,3.07-21.57,19.34-24,28.25,4.91-2.1,10.29-7.92,15.3-9.21,6.28-1.62,15.08,4.82,22.86,5.46,12.35,1,36.13.17,42.84-13.26-1.08,11-10,21.43-14.75,30.75-4.85,9.53-4.78,11.67,4.75,17.76,10.4,6.65,20.85,13.2,31.31,19.75,6,3.73,29.71,14.45,32.72,21.2,3.46,7.79-9.71,9.49-16.82,12.29-13.68,5.38-17.34,4.2-30.71-.74-11.74-4.33-23.46-8.68-35-13.54,7.29-5.7,31.29,1,40.12,1.67,12.87.91,26,2.93,38.88,3.1,9.94.13,68-25.75,65.25-30.24l-58,29.75c0-15.45-13.28-36.41-19-50.75-7.11-17.81-11.32-19.68,8-23.55a205.42,205.42,0,0,1,43.62-4.2c5.94,0,7.66-.86,11,3.06,2.39,2.84,3.86,12.09,4.91,15.31,3.22,9.83,6.85,19.52,10,29.38,6.06-8.2,7.43-32.21,7.5-42.5.08-13.09-6.24-26.32-10.59-38.65-9-25.57-29.58-50.15-45.41-72.1,8,21.28,12.87,45.07,19.25,67,2.77,9.51,7.12,19.29,10.23,29,2.23,7,1.51,7.38,6.27,9.52,4.12,1.86,15.29.29,19.75-.52-6.19-10.91-22.39-24.73-32.75-32.5,4.5-3.61,11-7.16,14.51-11.65,5.3-6.72,2.4-12.21.74-21.1-4.42-23.56-7.5-47.16-11-70.5-6.92,2.32-29,14.25-35.39,11.88C437.19,143,426.6,121,425.75,116.27,423.89,106,428.63,91.32,430,81c1.22-9.15.55-18.69,2.16-28,2.11-12.26,10.57-14,21.24-20.64,4.7-2.93,33.91-18.83,31.36-22.61-1.95-2.88-37.21,4.3-42,4.5,4-5.72,19.48-8,26.5-10.24,8.31-2.6,18.9-4.34,27.5-1.76l-9,6.5c12.63,2.91,20.51,19.66,23,30.71,2.41,10.58-1.39,21.45-3.45,32.2-1.73,9.07-2.29,9.42,4.42,15.33l-6.51-5.78c-7.91,13.66-15.64,27.41-23.5,41.09-6.29,10.93-20.16,18.22-32.9,20.45-1.13.2-5.6,3.16-6.59,1.49-1.59-2.69,9.63-17,11.18-19.44,6.44-10.3,12.63-20.67,18.84-31.09,11.55-19.37,19.07-39.57,19-62.22,0-5.78-1.33-12-.25-17.75.6-3.18,1.37-11.86,6.56-12.1,2.43-.11,11.29,9.81,12.67,11.92,12.78,19.51,9.13,49.22,3,70.68-2.92,10.24-10.15,19.11-15.81,28-6.25,9.83-12,22.82-20,31.06-5.8,5.95-21.4,15.21-30.43,17.19-13.1,2.88-28.2-3-41.25,0-8.5,2-15.84,14.12-22.25,21.53,7.81,3.55,15.67,6.87,23.65,10,2.13.84,7.52,4.19,9.71,3.9,5.38-.72-.75.83,4.1-2.44,5.82-3.92,25-26.15,25.85-32.9.31-2.63-4.33-13.61-6.44-14.62-3.33-1.61-17.16,5.56-21.22,7-7,2.39-17.42,8.56-24.78,7.61,8.58,3.31-25.19,31.76-27.68,33.6-3.16,2.34-12.7,7.16-11.45,11.09,1.13,3.55,16.55,9.43,19.25,12.81-5.85,4.09-9.81,6.92-15.5,4.5-8-3.38-13.11-11.25-21.78-10.61-12,.88-24.09,21.87-19.43,33.21,6,14.52,33.1,8.84,43.89,9,7.69.15,16.73-.84,23.61,2,8.84,3.7,18,13.32,25.45,19.56"/></g></g></svg>
